<?xml version="1.0" standalone="no"?>
<svg viewBox="0 0 200 200" xmlns="http://www.w3.org/2000/svg">
  <path fill="#FF0066" d="M33.2,-56.5C39.4,-47.7,38.2,-32.3,37.1,-21C36,-9.6,35,-2.4,36.1,6.7C37.2,15.9,40.4,26.8,37.2,34.2C33.9,41.7,24.2,45.5,15.5,44C6.8,42.6,-0.8,35.8,-8.3,31.9C-15.7,28,-22.8,27,-33.8,23.9C-44.7,20.9,-59.5,15.8,-68,5.3C-76.6,-5.2,-78.8,-21.1,-71.5,-30.7C-64.1,-40.3,-47.1,-43.5,-33.5,-48.9C-20,-54.2,-10,-61.8,1.8,-64.5C13.5,-67.2,27,-65.2,33.2,-56.5Z" transform="translate(100 100)" />
</svg>
